<?xml version="1.0" encoding="utf-8"?>
<!-- Generator: Adobe Illustrator 25.2.1, SVG Export Plug-In . SVG Version: 6.00 Build 0)  -->
<svg version="1.1" id="Layer_1" xmlns="http://www.w3.org/2000/svg" xmlns:xlink="http://www.w3.org/1999/xlink" x="0px" y="0px"
	 viewBox="0 0 108 32" style="enable-background:new 0 0 108 32;" xml:space="preserve">
<style type="text/css">
	.st0{fill:#FFC600;}
	.st1{fill-rule:evenodd;clip-rule:evenodd;fill:#FFC600;}
</style>
<path class="st0" d="M16.5,0c-8.8,0-16,7.2-16,16c0,8.8,7.2,16,16,16c8.8,0,16-7.2,16-16C32.5,7.2,25.3,0,16.5,0z M16.5,29.8
	C8.9,29.8,2.7,23.6,2.7,16c0-7.6,6.2-13.8,13.8-13.8c7.6,0,13.8,6.2,13.8,13.8C30.3,23.6,24.1,29.8,16.5,29.8z"/>
<path class="st1" d="M11.2,10.9c-1.2,0.1-2,1-2.1,2.2C9,14.1,9,15.2,9,16c0,0.8,0,1.9,0.1,2.9C9.1,20,10,20.9,11.2,21
	c1.3,0.1,3.1,0.2,5.3,0.2c2.2,0,4.1-0.1,5.3-0.2c1.1-0.1,2-1.1,2.1-2.2c0-1,0.1-2.2,0.1-2.8c0-0.7,0-1.8-0.1-2.8
	C23.8,12,23,11,21.8,10.9c-1.2-0.1-3-0.2-5.3-0.2C14.2,10.7,12.4,10.8,11.2,10.9L11.2,10.9z M15,13.7l3.9,2.2L15,18.2V13.7z"/>
<g>
	<path class="st0" d="M39.7,10.7h2.4l2.3,4.4h0.1l2.3-4.4h2.4l-3.7,6.6V21h-2.1v-3.6L39.7,10.7z"/>
	<path class="st0" d="M55.1,10.6c0.7,0,1.4,0.1,2,0.3c0.6,0.2,1.1,0.5,1.5,1c0.4,0.4,0.7,1,1,1.6c0.2,0.7,0.3,1.4,0.3,2.3
		s-0.1,1.7-0.3,2.3s-0.5,1.2-1,1.6c-0.4,0.4-0.9,0.8-1.5,1c-0.6,0.2-1.3,0.3-2,0.3c-0.7,0-1.4-0.1-2-0.3c-0.6-0.2-1.1-0.5-1.5-1
		c-0.4-0.4-0.7-1-0.9-1.6c-0.2-0.7-0.3-1.4-0.3-2.3c0-0.9,0.1-1.7,0.3-2.3c0.2-0.7,0.5-1.2,0.9-1.6c0.4-0.4,0.9-0.8,1.5-1
		C53.7,10.7,54.4,10.6,55.1,10.6z M55.1,19.2c0.5,0,0.8-0.1,1.2-0.2c0.3-0.1,0.6-0.3,0.8-0.6c0.2-0.3,0.4-0.6,0.5-1
		c0.1-0.4,0.2-0.9,0.2-1.5c0-0.6,0-1.1-0.2-1.5c-0.1-0.4-0.3-0.8-0.5-1c-0.2-0.3-0.5-0.5-0.8-0.6c-0.3-0.1-0.7-0.2-1.2-0.2
		c-0.5,0-0.8,0.1-1.2,0.2c-0.3,0.1-0.6,0.3-0.8,0.6c-0.2,0.3-0.4,0.6-0.5,1c-0.1,0.4-0.1,0.9-0.1,1.5c0,0.6,0,1.1,0.1,1.5
		c0.1,0.4,0.3,0.8,0.5,1c0.2,0.3,0.5,0.5,0.8,0.6C54.2,19.2,54.6,19.2,55.1,19.2z"/>
	<path class="st0" d="M61.5,17.4v-6.6h2.2v6.5c0,0.4,0,0.7,0.1,0.9c0.1,0.3,0.2,0.5,0.4,0.6c0.2,0.2,0.4,0.3,0.6,0.4
		c0.3,0.1,0.6,0.1,1,0.1s0.7,0,1-0.1c0.3-0.1,0.5-0.2,0.6-0.4c0.2-0.2,0.3-0.4,0.4-0.6c0.1-0.3,0.1-0.6,0.1-0.9v-6.5H70v6.6
		c0,1.2-0.4,2.2-1.1,2.8s-1.8,0.9-3.2,0.9c-1.4,0-2.5-0.3-3.2-0.9C61.8,19.6,61.5,18.6,61.5,17.4z"/>
	<path class="st0" d="M71.4,12.5v-1.8h8.4v1.8h-3.1V21h-2.1v-8.5H71.4z"/>
	<path class="st0" d="M81.2,17.4v-6.6h2.2v6.5c0,0.4,0,0.7,0.1,0.9c0.1,0.3,0.2,0.5,0.4,0.6c0.2,0.2,0.4,0.3,0.6,0.4
		c0.3,0.1,0.6,0.1,1,0.1s0.7,0,1-0.1c0.3-0.1,0.5-0.2,0.6-0.4c0.2-0.2,0.3-0.4,0.4-0.6c0.1-0.3,0.1-0.6,0.1-0.9v-6.5h2.2v6.6
		c0,1.2-0.4,2.2-1.1,2.8s-1.8,0.9-3.2,0.9c-1.4,0-2.5-0.3-3.2-0.9C81.5,19.6,81.2,18.6,81.2,17.4z"/>
	<path class="st0" d="M91.4,21V10.7h4.1c0.6,0,1.2,0.1,1.6,0.2c0.4,0.1,0.8,0.3,1.1,0.5c0.3,0.2,0.5,0.5,0.6,0.8
		c0.1,0.3,0.2,0.7,0.2,1.2c0,0.4,0,0.7-0.1,1c-0.1,0.3-0.2,0.5-0.4,0.7s-0.4,0.3-0.6,0.5c-0.2,0.1-0.5,0.2-0.7,0.3
		c0.3,0,0.6,0.1,0.8,0.1s0.5,0.2,0.7,0.4c0.2,0.2,0.4,0.4,0.5,0.7c0.1,0.3,0.2,0.7,0.2,1.1c0,0.5-0.1,0.9-0.2,1.2
		c-0.1,0.4-0.3,0.6-0.6,0.9c-0.3,0.2-0.6,0.4-1.1,0.5s-1,0.2-1.6,0.2H91.4z M93.6,12.5V15h1.6c0.3,0,0.5,0,0.7-0.1
		c0.2,0,0.4-0.1,0.5-0.2c0.1-0.1,0.2-0.2,0.3-0.4s0.1-0.4,0.1-0.6c0-0.2,0-0.5-0.1-0.6c0-0.2-0.1-0.3-0.2-0.4s-0.3-0.2-0.5-0.2
		s-0.4-0.1-0.7-0.1H93.6z M93.6,19.2h1.8c0.4,0,0.7,0,0.9-0.1c0.2,0,0.4-0.1,0.5-0.2c0.1-0.1,0.2-0.2,0.3-0.4c0-0.2,0.1-0.4,0.1-0.6
		c0-0.3,0-0.5-0.1-0.7c-0.1-0.2-0.1-0.3-0.3-0.4s-0.3-0.2-0.5-0.2c-0.2,0-0.5-0.1-0.8-0.1h-1.8V19.2z"/>
	<path class="st0" d="M100.7,21V10.7h6.9v1.8h-4.7V15h4.4v1.8h-4.4v2.4h4.8V21H100.7z"/>
</g>
</svg>
